<svg xmlns="http://www.w3.org/2000/svg" viewBox="0 0 107.638 94.458">
  <path id="Tracé_44" data-name="Tracé 44" d="M45.391,43.05V2.411H23.79a89.236,89.236,0,0,1,.915-12.631,37.463,37.463,0,0,1,3.478-11.533,23.449,23.449,0,0,1,6.59-8.238A16.276,16.276,0,0,1,45.025-33.1V-51.408a35.533,35.533,0,0,0-17.94,4.393A37.466,37.466,0,0,0,14.454-35.3,52.484,52.484,0,0,0,7.132-18.275,86.608,86.608,0,0,0,4.752,2.411V43.05Zm67,0V2.411h-21.6A89.236,89.236,0,0,1,91.7-10.22a37.463,37.463,0,0,1,3.478-11.533,23.449,23.449,0,0,1,6.59-8.238A16.275,16.275,0,0,1,112.024-33.1V-51.408a35.533,35.533,0,0,0-17.94,4.393A37.466,37.466,0,0,0,81.453-35.3a52.484,52.484,0,0,0-7.322,17.024,86.609,86.609,0,0,0-2.38,20.685V43.05Z" transform="translate(-4.752 51.408)" fill="#5254FF" />
</svg>