<svg width="74" height="65" viewBox="0 0 74 65" fill="none" xmlns="http://www.w3.org/2000/svg">
    <path d="M28.25 65V37.25H13.5C13.5 34.4167 13.6667 31.5833 14 28.75C14.5 25.75 15.3333 23.0833 16.5 20.75C17.6667 18.4167 19.1667 16.5833 21 15.25C22.8333 13.75 25.1667 13 28 13V0.499988C23.3333 0.499988 19.25 1.49999 15.75 3.49999C12.25 5.49999 9.33334 8.16666 7 11.5C4.83333 14.8333 3.16667 18.75 2 23.25C1 27.5833 0.5 32.25 0.5 37.25V65H28.25ZM74 65V37.25H59.25C59.25 34.4167 59.4167 31.5833 59.75 28.75C60.25 25.75 61.0833 23.0833 62.25 20.75C63.4167 18.4167 64.9167 16.5833 66.75 15.25C68.5833 13.75 70.9167 13 73.75 13V0.499988C69.0833 0.499988 65 1.49999 61.5 3.49999C58 5.49999 55.0833 8.16666 52.75 11.5C50.5833 14.8333 48.9167 18.75 47.75 23.25C46.75 27.5833 46.25 32.25 46.25 37.25V65H74Z" fill="#228BE6"/>
</svg>