<svg xmlns="http://www.w3.org/2000/svg" xmlns:xlink="http://www.w3.org/1999/xlink">
    <symbol id="icon-arrow" viewBox="0 0 24 16">
        <path id="arrow" d="M75.537,56l-1.2,1.2,5.947,5.942L59.549,62.8V64.51l20.731.347L74.335,70.8l1.2,1.2,6.8-6.8.005.007,1.2-1.2Z" transform="translate(-59.549 -56)" fill="inherit" fill-rule="evenodd"/>
    </symbol>
    <symbol id="icon-arrow-small" viewBox="0 0 9.75 11.258">
        <path id="arrow-small" d="M41,34.5l-9.75,5.629V28.871Z" transform="translate(-31.25 -28.871)" fill="#4a4cff"/>
    </symbol>
    <symbol id="icon-arrow-down" width="10" height="5" viewBox="0 0 10 5">
        <path id="arrow-down" d="M36.25,33.871l-5,5v-10Z" transform="translate(38.871 -31.25) rotate(90)" fill="#151515"/>
    </symbol>
    <symbol id="icon-check" width="24" height="24" viewBox="0 0 24 24">
        <path id="check" d="M24.563,12.563a12,12,0,1,1-12-12A12,12,0,0,1,24.563,12.563ZM11.174,18.916l8.9-8.9a.774.774,0,0,0,0-1.095L18.983,7.823a.774.774,0,0,0-1.095,0l-7.261,7.261-3.39-3.39a.774.774,0,0,0-1.095,0L5.047,12.789a.774.774,0,0,0,0,1.095l5.032,5.032a.774.774,0,0,0,1.095,0Z" transform="translate(-0.563 -0.563)" fill="#4a4cff"/>
    </symbol>
</svg>